<?xml version="1.0" encoding="UTF-8"?><svg id="Layer_1" xmlns="http://www.w3.org/2000/svg" viewBox="0 0 149.1 22.56"><defs><style>.cls-1{fill:#3bd17f;}.cls-1,.cls-2{stroke:#5e5e5e;stroke-miterlimit:10;stroke-width:1.07px;}.cls-3{fill:#111110;}.cls-2{fill:none;}</style></defs><g><g><path class="cls-3" d="M38.21,20.02c-4.56,0-8.05-3.15-8.07-8.74,.02-5.6,3.51-8.72,8.07-8.69,4.56-.02,8.09,3.1,8.12,8.69-.02,5.62-3.55,8.74-8.12,8.74Zm0-3.51c2.5-.02,4.01-1.85,4.04-5.24-.02-3.36-1.54-5.21-4.04-5.19-2.45-.02-3.96,1.83-3.99,5.19,.02,3.39,1.54,5.21,3.99,5.24Z"/><path class="cls-3" d="M63.1,19.78h-3.41l-6.92-9.99h-.1v9.99h-3.99V2.77h3.46l6.82,9.99h.1V2.77h4.04V19.78Z"/></g><circle class="cls-1" cx="11.28" cy="11.28" r="10.75"/></g><g><g><path class="cls-3" d="M113.56,20.02c-4.56,0-8.05-3.15-8.07-8.74,.02-5.6,3.51-8.72,8.07-8.69,4.56-.02,8.09,3.1,8.12,8.69-.02,5.62-3.55,8.74-8.12,8.74Zm0-3.51c2.5-.02,4.01-1.85,4.04-5.24-.02-3.36-1.54-5.21-4.04-5.19-2.45-.02-3.96,1.83-3.99,5.19,.02,3.39,1.54,5.21,3.99,5.24Z"/><path class="cls-3" d="M124.03,2.77h11.53v3.27h-7.54v3.6h6.77v3.27h-6.77v6.87h-3.99V2.77Z"/><path class="cls-3" d="M137.58,2.77h11.53v3.27h-7.54v3.6h6.77v3.27h-6.77v6.87h-3.99V2.77Z"/></g><circle class="cls-2" cx="86.63" cy="11.28" r="10.75"/></g></svg>